<svg xmlns="http://www.w3.org/2000/svg" width="128" height="128" fill="none" viewBox="0 0 128 128" id="bookmark">
  <path stroke="#3e3e3e" stroke-width="7" d="M78.978 20.8778C89.5889 23.625 96.9999 33.1992 96.9998 44.16L96.9995 67.8624L96.9997 88.1536C96.9999 100.313 96.9999 106.392 93.1442 108.331C89.2885 110.269 84.4088 106.643 74.6493 99.3908L72.3504 97.6824C68.3276 94.693 66.3161 93.1982 64 93.1982C61.6838 93.1983 59.6724 94.693 55.6495 97.6824L53.3505 99.3909C43.5911 106.643 38.7114 110.27 34.8557 108.331C31 106.393 31 100.313 31 88.1539L31 67.8624L31 44.1599C31 33.1992 38.4111 23.625 49.022 20.8778V20.8778C58.8454 18.3345 69.1546 18.3345 78.978 20.8778V20.8778Z"></path>
</svg>
