<svg xmlns="http://www.w3.org/2000/svg" width="128" height="128" fill="none" viewBox="0 0 128 128" id="like">
  <g clip-path="url(#clip0_28_1121)">
    <rect width="22" height="62" stroke="#3e3e3e" stroke-width="7" rx="11" transform="matrix(-1 0 0 1 38 49)"></rect>
    <path stroke="#3e3e3e" stroke-width="7" d="M108.827 83.0324C111.703 72.2016 113.141 66.7861 111.738 62.5436C110.672 59.3224 108.545 56.5576 105.706 54.7007C101.965 52.2552 96.3623 52.2552 85.1561 52.2552L83.511 52.2552C80.7645 52.2552 79.3913 52.2552 78.3609 51.8634C76.3556 51.1008 74.9101 49.3255 74.5696 47.2073C74.3947 46.1189 74.673 44.7742 75.2295 42.0846V42.0846C77.617 30.5467 78.8107 24.7777 77.9675 22.4054C76.2997 17.7132 71.1387 15.2672 66.4509 16.9472C64.0808 17.7966 60.3713 22.3733 52.9523 31.5266L44.8773 41.4893C42.3754 44.5761 41.1244 46.1196 40.3261 47.8896C39.9843 48.6476 39.7061 49.4326 39.4944 50.2367C39 52.1144 39 54.1012 39 58.0746L39 81C39 95.1421 39 102.213 43.3934 106.607C47.7868 111 54.8578 111 69 111L78.8096 111C89.4273 111 94.7361 111 98.6786 108.136C98.9005 107.975 99.118 107.808 99.3308 107.635C103.11 104.559 104.473 99.4283 107.198 89.1663L108.827 83.0324Z"></path>
  </g>
  <defs>
    <clipPath id="clip0_28_1121">
      <rect width="128" height="128" fill="#fff" transform="rotate(-180 64 64)"></rect>
    </clipPath>
  </defs>
</svg>