<svg xmlns="http://www.w3.org/2000/svg" width="1023" height="1024" id="settings">
  <path d="M320.08 563.083C271.734 560.882 285.227 516.129 266.801 499.899C261.026 494.813 246.301 486.825 238.574 485.486C219.069 482.108 201.718 503.823 179.551 505.215C159.395 506.481 139.905 490.246 136.297 470.519C129.462 433.159 170.372 428.302 149.118 387.091C133.358 356.534 109.683 367.969 90.3669 350.61C76.4095 338.068 73.0715 318.433 81.1424 301.731C94.2938 274.515 126.477 282.243 141.295 265.525C148.145 257.796 156.445 241.729 156.168 231.005C155.8 216.729 137.019 200.031 135.891 181.11C133.81 146.207 167.332 124.953 199.779 140.87C210.26 146.012 221.762 155.314 234.007 154.55C242.256 154.036 259.905 145.671 266.319 139.937C286.897 121.54 272.191 79.2835 320.111 77.0055C365.891 75.6059 354.663 122.162 374.583 140.263C379.579 144.803 395.55 152.345 402.517 153.78C424.284 158.263 438.433 135.842 462.418 134.807C488.462 133.682 510.64 162.181 504.424 187.161C497.395 215.407 474.467 216.513 491.347 252.487C506.512 284.808 531.938 271.868 550.908 289.508C564.532 302.176 566.886 321.816 559.544 338.367C544.462 372.361 508.051 348.829 489.125 392.283C475.092 424.501 504.398 432.17 505.408 459.692C506.178 480.666 491.344 502.192 469.682 504.937C441.52 508.506 428.333 484.428 406.781 485.278C396.658 485.678 379.974 493.279 372.936 500.815C354.492 520.567 368.365 561.261 320.08 563.083ZM316.851 90.1096C286.404 94.0712 296.192 130.089 275.124 149.315C265.374 158.212 249.631 165.507 236.745 167.155C211.365 170.399 191.875 141.933 168.698 149.277C155.981 153.307 147.053 167.21 148.681 180.399C151.988 207.19 181.495 215.241 162.67 255.232C159.937 261.038 156.825 267.034 152.905 272.122C134.786 295.639 98.9286 285.507 91.4973 310.18C85.3319 330.65 95.4512 342.275 113.492 347.906C134.964 354.608 147.104 356.924 158.871 378.007C165.488 389.863 171.228 404.457 167.453 418.177C160.913 441.944 131.06 463.777 162.492 487.51C193.739 511.103 213.824 444.47 272.212 487.622C296.112 505.285 285.038 554.638 323.912 549.89C359.886 545.553 338.48 503.192 378.414 481.389C430.456 452.975 444.332 504.709 475.081 489.795C486.275 484.365 494.048 471.926 492.556 459.333C489.766 435.781 463.389 426.419 475.314 392.795C479.938 379.757 487.47 365.541 499.805 358.271C517.279 347.974 545.19 349.31 549.93 327.775C554.325 307.811 544.086 297.549 526.777 291.87C505.627 284.931 493.417 283.499 481.717 262.182C452.7 209.316 504.269 198.186 490.026 166.781C480.135 144.971 462.55 144.098 444.184 154.206C424.991 164.77 413.025 171.577 390.973 163.406C362.982 153.034 356.577 142.445 348.033 113.83C343.278 97.9058 336.502 87.6438 316.851 90.1096Z" transform="scale(1.6)"></path>
  <path d="M325.727 438.386C294.517 439.046 265.656 430.19 241.786 409.666C193.01 367.728 189.35 289.318 231.088 241.226C254.061 214.755 281.741 204.091 315.448 201.698C343.026 198.172 377.469 212.091 398.321 229.718C446.362 270.327 451.566 349.475 411.278 397.209C388.53 424.161 359.664 435.494 325.727 438.386ZM319.085 214.515C289.775 215.485 263.014 226.155 242.745 247.752C204.137 288.886 206.314 359.259 247.679 397.639C268.11 416.596 294.604 425.482 322.186 425.377C417.882 423.99 460.113 306.738 393.63 243.206C373.185 223.667 347.072 214.578 319.085 214.515Z" transform="scale(1.6)"></path>
  <path d="M323.984 389.799C286.43 391.773 253.278 363.1 250.368 325.465C247.346 286.384 277.696 253.022 316.336 250.133C334.618 249.467 353.026 255.202 366.829 267.422C413.851 309.052 387.042 386.235 323.984 389.799ZM314.549 263.559C282.565 266.871 260.406 295.476 263.811 327.187C267.16 358.363 296.619 379.934 327.262 376.486C377.007 370.448 396.063 306.354 355.053 274.857C344.034 266.394 328.465 261.496 314.549 263.559Z" transform="scale(1.6)"></path>
</svg>